<svg xmlns="http://www.w3.org/2000/svg" width="1600" height="900" viewBox="0 0 1600 900">
  <defs>
    <linearGradient id="g" x1="0" y1="0" x2="1" y2="1">
      <stop offset="0" stop-color="#0b1220"/>
      <stop offset="0.55" stop-color="#0b2a6f"/>
      <stop offset="1" stop-color="#e2e8f0"/>
    </linearGradient>
    <radialGradient id="r" cx="30%" cy="20%" r="60%">
      <stop offset="0" stop-color="rgba(37,99,235,0.35)"/>
      <stop offset="1" stop-color="rgba(37,99,235,0)"/>
    </radialGradient>
  </defs>
  <rect width="1600" height="900" fill="url(#g)"/>
  <rect width="1600" height="900" fill="url(#r)"/>
  <g opacity="0.22" fill="none" stroke="#ffffff">
    <path d="M0 120H1600" />
    <path d="M0 240H1600" />
    <path d="M0 360H1600" />
    <path d="M0 480H1600" />
    <path d="M0 600H1600" />
    <path d="M0 720H1600" />
    <path d="M200 0V900" />
    <path d="M400 0V900" />
    <path d="M600 0V900" />
    <path d="M800 0V900" />
    <path d="M1000 0V900" />
    <path d="M1200 0V900" />
    <path d="M1400 0V900" />
  </g>
  <g>
    <rect x="80" y="740" width="540" height="96" rx="18" fill="rgba(255,255,255,0.72)" stroke="rgba(226,232,240,0.8)"/>
    <text x="110" y="785" font-family="ui-sans-serif, system-ui" font-size="22" fill="#0f172a" font-weight="700">
      Placeholder: hero-drhkat.jpg
    </text>
    <text x="110" y="815" font-family="ui-sans-serif, system-ui" font-size="16" fill="#334155">
      Replace with an official DRHKAT/Lubumbashi photo.
    </text>
  </g>
</svg>

